<svg xmlns="http://www.w3.org/2000/svg" xmlns:xlink="http://www.w3.org/1999/xlink" width="185" zoomAndPan="magnify" viewBox="0 0 138.75 48.75" height="65" preserveAspectRatio="xMidYMid meet" version="1.2"><defs><clipPath id="ff6ecb2caf"><path d="M 5.078125 3.835938 L 27.464844 3.835938 L 27.464844 44.128906 L 5.078125 44.128906 Z M 5.078125 3.835938 "/></clipPath><clipPath id="414a7ba184"><path d="M 27.796875 3.835938 L 50.183594 3.835938 L 50.183594 44.128906 L 27.796875 44.128906 Z M 27.796875 3.835938 "/></clipPath></defs><g id="8dd190551f"><g clip-rule="nonzero" clip-path="url(#ff6ecb2caf)"><path style=" stroke:none;fill-rule:nonzero;fill:#7cb030;fill-opacity:1;" d="M 41.8125 32.214844 L 36.917969 37.105469 L 30.996094 43.03125 C 30.289062 43.738281 29.34375 44.125 28.335938 44.125 C 27.429688 44.125 26.558594 43.804688 25.886719 43.21875 L 25.835938 43.175781 L 25.84375 43.179688 L 19.839844 37.179688 L 15.160156 32.5 L 9.011719 26.347656 C 8.371094 25.710938 7.808594 25.019531 7.320312 24.285156 C 5.855469 22.085938 5.089844 19.496094 5.121094 16.785156 C 5.160156 13.746094 6.21875 10.875 8.128906 8.578125 L 9.300781 10.996094 C 10.351562 12.839844 10.609375 13.417969 10.609375 13.417969 C 10.234375 16.726562 12.039062 20.816406 12.039062 20.816406 C 11.066406 24.222656 11.023438 26.074219 11.023438 26.074219 C 11.023438 26.074219 10.835938 27.109375 11.101562 27.554688 C 11.367188 28.003906 11.867188 27.777344 11.957031 27.542969 C 12.042969 27.3125 12.546875 25.550781 12.78125 24.800781 C 13.011719 24.050781 13.542969 22.019531 14.035156 21.8125 C 14.523438 21.609375 14.875 21.921875 14.90625 22.816406 C 14.929688 23.710938 15.761719 28.808594 15.855469 29.175781 C 15.953125 29.542969 16.339844 30.402344 17.128906 29.664062 C 17.792969 28.632812 16.96875 22.882812 16.96875 22.882812 C 16.96875 22.882812 16.878906 22.300781 17.234375 22.261719 C 17.589844 22.222656 17.574219 22.28125 17.921875 23.585938 C 18.273438 24.890625 19.273438 28.074219 19.519531 28.984375 C 19.761719 29.894531 19.84375 30.339844 20.140625 30.441406 C 20.4375 30.546875 21.257812 30.382812 21.125 29.171875 C 20.996094 27.960938 20.523438 25.382812 20.105469 23.789062 C 19.6875 22.199219 19.4375 21.761719 19.871094 21.542969 C 20.308594 21.324219 19.839844 20.546875 21.636719 22.808594 C 23.6875 25.148438 24.785156 26.75 25.050781 26.878906 C 25.3125 27.011719 26.132812 26.816406 25.929688 26.101562 C 25.726562 25.382812 24.945312 23.964844 24.5 23.234375 C 24.054688 22.507812 21.703125 19.328125 21.273438 18.222656 C 20.84375 17.121094 20.441406 15.492188 21.007812 14.980469 C 21.570312 14.46875 23.40625 14.203125 24.09375 14.25 C 24.777344 14.300781 25.554688 14.195312 26.214844 13.722656 C 26.875 13.246094 27.105469 12.414062 27.042969 11.792969 C 26.785156 11.21875 26.21875 11.980469 25.824219 12.132812 C 25.429688 12.289062 21.792969 12.015625 21.082031 11.742188 C 20.363281 11.46875 19.285156 10.839844 18.601562 10.714844 C 17.921875 10.585938 16.945312 10.570312 16.507812 9.933594 C 16.078125 9.300781 15.597656 8.035156 15.597656 8.035156 L 14.128906 4.492188 C 15.4375 4.0625 16.820312 3.835938 18.238281 3.835938 C 18.824219 3.835938 19.421875 3.875 20.011719 3.953125 C 22.871094 4.335938 25.472656 5.628906 27.53125 7.6875 L 28.34375 8.496094 L 29.152344 7.6875 C 30.035156 6.800781 31.023438 6.058594 32.085938 5.46875 C 33.453125 4.710938 34.949219 4.203125 36.523438 3.972656 C 37.152344 3.882812 37.800781 3.835938 38.453125 3.835938 C 39.882812 3.835938 41.273438 4.066406 42.59375 4.503906 L 40.246094 9.011719 C 40.246094 9.011719 39.660156 10.226562 39.171875 10.820312 C 38.683594 11.414062 37.707031 11.34375 37.019531 11.414062 C 36.328125 11.480469 35.199219 12.011719 34.460938 12.222656 C 33.726562 12.429688 30.078125 12.386719 29.699219 12.195312 C 29.320312 12.007812 28.824219 11.203125 28.515625 11.753906 C 28.402344 12.367188 28.554688 13.21875 29.171875 13.746094 C 29.789062 14.273438 30.554688 14.445312 31.242188 14.457031 C 31.929688 14.46875 33.734375 14.898438 34.25 15.457031 C 34.769531 16.011719 34.222656 17.601562 33.703125 18.664062 C 33.179688 19.722656 30.558594 22.6875 30.054688 23.371094 C 29.546875 24.058594 28.644531 25.40625 28.378906 26.101562 C 28.113281 26.796875 28.914062 27.0625 29.183594 26.957031 C 29.457031 26.847656 30.699219 25.351562 32.941406 23.199219 C 34.929688 21.101562 34.394531 21.835938 34.808594 22.089844 C 35.226562 22.347656 34.9375 22.761719 34.378906 24.308594 C 33.820312 25.855469 33.132812 28.382812 32.894531 29.582031 C 32.65625 30.777344 33.460938 31.011719 33.765625 30.933594 C 34.070312 30.851562 34.191406 30.421875 34.515625 29.535156 C 34.835938 28.648438 36.109375 25.570312 36.570312 24.296875 C 37.035156 23.027344 37.023438 22.96875 37.375 23.035156 C 37.726562 23.105469 37.585938 23.675781 37.585938 23.675781 C 37.585938 23.675781 36.261719 29.335938 36.832031 30.421875 C 37.554688 31.226562 38.011719 30.402344 38.144531 30.042969 C 38.273438 29.691406 39.542969 24.679688 39.648438 23.792969 C 39.753906 22.90625 40.128906 22.625 40.601562 22.871094 C 41.074219 23.117188 41.421875 25.1875 41.59375 25.957031 C 41.757812 26.722656 42.105469 28.523438 42.171875 28.761719 C 42.242188 29 42.71875 29.269531 43.023438 28.84375 C 43.328125 28.421875 43.230469 27.378906 43.230469 27.378906 C 43.230469 27.378906 43.347656 25.53125 42.679688 22.050781 C 42.679688 22.050781 44.832031 18.136719 44.746094 14.804688 C 44.746094 14.804688 45.058594 14.25 46.261719 12.507812 L 48.585938 8.609375 C 50.402344 10.808594 51.457031 13.535156 51.582031 16.414062 C 51.734375 20.089844 50.339844 23.6875 47.746094 26.277344 L 41.8125 32.214844 "/></g><g clip-rule="nonzero" clip-path="url(#414a7ba184)"><path style=" stroke:none;fill-rule:nonzero;fill:#ec9307;fill-opacity:1;" d="M 13.777344 32.214844 L 18.671875 37.105469 L 24.59375 43.03125 C 25.300781 43.738281 26.246094 44.125 27.253906 44.125 C 28.160156 44.125 29.03125 43.804688 29.703125 43.21875 L 29.753906 43.175781 L 29.746094 43.179688 L 35.75 37.179688 L 40.429688 32.5 L 46.578125 26.347656 C 47.21875 25.710938 47.78125 25.019531 48.269531 24.285156 C 49.734375 22.085938 50.5 19.496094 50.46875 16.785156 C 50.429688 13.746094 49.371094 10.875 47.460938 8.578125 L 46.289062 10.996094 C 45.238281 12.839844 44.980469 13.417969 44.980469 13.417969 C 45.355469 16.726562 43.550781 20.816406 43.550781 20.816406 C 44.523438 24.222656 44.566406 26.074219 44.566406 26.074219 C 44.566406 26.074219 44.753906 27.109375 44.488281 27.554688 C 44.222656 28.003906 43.722656 27.777344 43.632812 27.542969 C 43.546875 27.3125 43.042969 25.550781 42.808594 24.800781 C 42.578125 24.050781 42.046875 22.019531 41.554688 21.8125 C 41.066406 21.609375 40.714844 21.921875 40.683594 22.816406 C 40.660156 23.710938 39.828125 28.808594 39.734375 29.175781 C 39.636719 29.542969 39.25 30.402344 38.460938 29.664062 C 37.796875 28.632812 38.621094 22.882812 38.621094 22.882812 C 38.621094 22.882812 38.710938 22.300781 38.355469 22.261719 C 38 22.222656 38.015625 22.28125 37.667969 23.585938 C 37.316406 24.890625 36.316406 28.074219 36.070312 28.984375 C 35.828125 29.894531 35.746094 30.339844 35.449219 30.441406 C 35.152344 30.546875 34.332031 30.382812 34.464844 29.171875 C 34.59375 27.960938 35.066406 25.382812 35.484375 23.789062 C 35.902344 22.199219 36.152344 21.761719 35.71875 21.542969 C 35.28125 21.324219 35.75 20.546875 33.953125 22.808594 C 31.902344 25.148438 30.804688 26.75 30.539062 26.878906 C 30.277344 27.011719 29.457031 26.816406 29.660156 26.101562 C 29.863281 25.382812 30.644531 23.964844 31.089844 23.234375 C 31.535156 22.507812 33.886719 19.328125 34.316406 18.222656 C 34.742188 17.121094 35.148438 15.492188 34.582031 14.980469 C 34.019531 14.46875 32.183594 14.203125 31.496094 14.25 C 30.8125 14.300781 30.035156 14.195312 29.375 13.722656 C 28.714844 13.246094 28.484375 12.414062 28.546875 11.792969 C 28.804688 11.21875 29.371094 11.980469 29.765625 12.132812 C 30.160156 12.289062 33.796875 12.015625 34.507812 11.742188 C 35.226562 11.46875 36.304688 10.839844 36.988281 10.714844 C 37.667969 10.585938 38.644531 10.570312 39.082031 9.933594 C 39.511719 9.300781 39.992188 8.035156 39.992188 8.035156 L 41.460938 4.492188 C 40.152344 4.0625 38.769531 3.835938 37.351562 3.835938 C 36.765625 3.835938 36.167969 3.875 35.578125 3.953125 C 32.71875 4.335938 30.117188 5.628906 28.058594 7.6875 L 27.246094 8.496094 L 26.4375 7.6875 C 25.554688 6.800781 24.566406 6.058594 23.503906 5.46875 C 22.136719 4.710938 20.640625 4.203125 19.066406 3.972656 C 18.4375 3.882812 17.789062 3.835938 17.136719 3.835938 C 15.707031 3.835938 14.316406 4.066406 12.996094 4.503906 L 15.34375 9.011719 C 15.34375 9.011719 15.929688 10.226562 16.417969 10.820312 C 16.90625 11.414062 17.882812 11.34375 18.570312 11.414062 C 19.261719 11.480469 20.390625 12.011719 21.128906 12.222656 C 21.863281 12.429688 25.511719 12.386719 25.890625 12.195312 C 26.269531 12.007812 26.765625 11.203125 27.074219 11.753906 C 27.1875 12.367188 27.035156 13.21875 26.417969 13.746094 C 25.800781 14.273438 25.035156 14.445312 24.347656 14.457031 C 23.660156 14.46875 21.855469 14.898438 21.339844 15.457031 C 20.820312 16.011719 21.367188 17.601562 21.886719 18.664062 C 22.410156 19.722656 25.03125 22.6875 25.535156 23.371094 C 26.042969 24.058594 26.945312 25.40625 27.210938 26.101562 C 27.476562 26.796875 26.675781 27.0625 26.40625 26.957031 C 26.132812 26.847656 24.890625 25.351562 22.648438 23.199219 C 20.660156 21.101562 21.195312 21.835938 20.78125 22.089844 C 20.363281 22.347656 20.652344 22.761719 21.210938 24.308594 C 21.769531 25.855469 22.457031 28.382812 22.695312 29.582031 C 22.933594 30.777344 22.128906 31.011719 21.824219 30.933594 C 21.519531 30.851562 21.398438 30.421875 21.074219 29.535156 C 20.753906 28.648438 19.480469 25.570312 19.015625 24.296875 C 18.554688 23.027344 18.566406 22.96875 18.214844 23.035156 C 17.863281 23.105469 18.003906 23.675781 18.003906 23.675781 C 18.003906 23.675781 19.328125 29.335938 18.757812 30.421875 C 18.035156 31.226562 17.578125 30.402344 17.445312 30.042969 C 17.316406 29.691406 16.046875 24.679688 15.941406 23.792969 C 15.835938 22.90625 15.460938 22.625 14.988281 22.871094 C 14.515625 23.117188 14.167969 25.1875 13.996094 25.957031 C 13.832031 26.722656 13.484375 28.523438 13.417969 28.761719 C 13.347656 29 12.871094 29.269531 12.566406 28.84375 C 12.261719 28.421875 12.359375 27.378906 12.359375 27.378906 C 12.359375 27.378906 12.242188 25.53125 12.910156 22.050781 C 12.910156 22.050781 10.757812 18.136719 10.84375 14.804688 C 10.84375 14.804688 10.53125 14.25 9.328125 12.507812 L 7.003906 8.609375 C 5.1875 10.808594 4.132812 13.535156 4.007812 16.414062 C 3.855469 20.089844 5.25 23.6875 7.84375 26.277344 L 13.777344 32.214844 "/></g><g style="fill:#000000;fill-opacity:1;"><g transform="translate(53.693451, 22.812497)"><path style="stroke:none" d="M 12.71875 0 L 12.71875 -6.9375 L 5.984375 -6.9375 L 5.984375 0 L 2.0625 0 L 2.0625 -17.21875 L 5.984375 -17.21875 L 5.984375 -10.609375 L 12.71875 -10.609375 L 12.71875 -17.21875 L 16.640625 -17.21875 L 16.640625 0 Z M 12.71875 0 "/></g></g><g style="fill:#000000;fill-opacity:1;"><g transform="translate(71.401263, 22.812497)"><path style="stroke:none" d="M 7.96875 0.34375 C 6.59375 0.34375 5.375 0.0546875 4.3125 -0.515625 C 3.257812 -1.085938 2.4375 -1.882812 1.84375 -2.90625 C 1.25 -3.9375 0.953125 -5.125 0.953125 -6.46875 C 0.953125 -7.8125 1.25 -8.992188 1.84375 -10.015625 C 2.445312 -11.035156 3.28125 -11.832031 4.34375 -12.40625 C 5.40625 -12.976562 6.628906 -13.265625 8.015625 -13.265625 C 9.492188 -13.265625 10.769531 -12.9375 11.84375 -12.28125 C 12.925781 -11.625 13.75 -10.703125 14.3125 -9.515625 C 14.875 -8.335938 15.113281 -6.960938 15.03125 -5.390625 L 4.671875 -5.390625 C 4.859375 -4.503906 5.253906 -3.828125 5.859375 -3.359375 C 6.460938 -2.890625 7.191406 -2.65625 8.046875 -2.65625 C 8.671875 -2.65625 9.238281 -2.773438 9.75 -3.015625 C 10.269531 -3.253906 10.6875 -3.585938 11 -4.015625 L 14.796875 -4.015625 C 14.234375 -2.648438 13.351562 -1.582031 12.15625 -0.8125 C 10.957031 -0.0390625 9.5625 0.34375 7.96875 0.34375 Z M 4.703125 -7.75 L 11.421875 -7.75 C 11.203125 -8.539062 10.800781 -9.160156 10.21875 -9.609375 C 9.632812 -10.054688 8.910156 -10.28125 8.046875 -10.28125 C 7.222656 -10.28125 6.507812 -10.054688 5.90625 -9.609375 C 5.3125 -9.160156 4.910156 -8.539062 4.703125 -7.75 Z M 4.703125 -7.75 "/></g></g><g style="fill:#000000;fill-opacity:1;"><g transform="translate(86.379003, 22.812497)"><path style="stroke:none" d="M 1.875 0 L 1.875 -18.203125 L 5.609375 -18.203125 L 5.609375 0 Z M 1.875 0 "/></g></g><g style="fill:#000000;fill-opacity:1;"><g transform="translate(92.871402, 22.812497)"><path style="stroke:none" d="M 9.703125 0.34375 C 8.890625 0.34375 8.140625 0.222656 7.453125 -0.015625 C 6.765625 -0.253906 6.148438 -0.585938 5.609375 -1.015625 L 5.609375 4.921875 L 1.875 4.921875 L 1.875 -12.921875 L 4.65625 -12.921875 L 5.0625 -11.4375 C 5.644531 -12.007812 6.328125 -12.457031 7.109375 -12.78125 C 7.898438 -13.101562 8.765625 -13.265625 9.703125 -13.265625 C 10.992188 -13.265625 12.128906 -12.972656 13.109375 -12.390625 C 14.097656 -11.804688 14.875 -11.003906 15.4375 -9.984375 C 16.007812 -8.972656 16.296875 -7.800781 16.296875 -6.46875 C 16.296875 -5.144531 16.007812 -3.96875 15.4375 -2.9375 C 14.875 -1.914062 14.097656 -1.113281 13.109375 -0.53125 C 12.128906 0.0507812 10.992188 0.34375 9.703125 0.34375 Z M 5.46875 -6.46875 C 5.46875 -5.414062 5.796875 -4.550781 6.453125 -3.875 C 7.117188 -3.207031 7.976562 -2.875 9.03125 -2.875 C 10.09375 -2.875 10.953125 -3.207031 11.609375 -3.875 C 12.265625 -4.550781 12.59375 -5.414062 12.59375 -6.46875 C 12.59375 -7.519531 12.265625 -8.378906 11.609375 -9.046875 C 10.953125 -9.722656 10.09375 -10.0625 9.03125 -10.0625 C 7.976562 -10.0625 7.117188 -9.722656 6.453125 -9.046875 C 5.796875 -8.378906 5.46875 -7.519531 5.46875 -6.46875 Z M 5.46875 -6.46875 "/></g></g><g style="fill:#000000;fill-opacity:1;"><g transform="translate(109.128093, 22.812497)"><path style="stroke:none" d="M 1.875 0 L 1.875 -12.921875 L 5.609375 -12.921875 L 5.609375 0 Z M 1.328125 -17.109375 C 1.328125 -17.796875 1.550781 -18.351562 2 -18.78125 C 2.457031 -19.21875 3.035156 -19.4375 3.734375 -19.4375 C 4.460938 -19.4375 5.046875 -19.21875 5.484375 -18.78125 C 5.929688 -18.351562 6.15625 -17.796875 6.15625 -17.109375 C 6.15625 -16.410156 5.929688 -15.84375 5.484375 -15.40625 C 5.046875 -14.976562 4.460938 -14.765625 3.734375 -14.765625 C 3.035156 -14.765625 2.457031 -14.976562 2 -15.40625 C 1.550781 -15.84375 1.328125 -16.410156 1.328125 -17.109375 Z M 1.328125 -17.109375 "/></g></g><g style="fill:#000000;fill-opacity:1;"><g transform="translate(115.620492, 22.812497)"><path style="stroke:none" d="M 1.875 0 L 1.875 -12.921875 L 4.65625 -12.921875 L 5.046875 -11.46875 C 5.566406 -12.070312 6.203125 -12.519531 6.953125 -12.8125 C 7.703125 -13.113281 8.5 -13.265625 9.34375 -13.265625 C 11.039062 -13.265625 12.367188 -12.738281 13.328125 -11.6875 C 14.285156 -10.632812 14.765625 -9.21875 14.765625 -7.4375 L 14.765625 0 L 11.03125 0 L 11.03125 -7.03125 C 11.03125 -7.988281 10.800781 -8.734375 10.34375 -9.265625 C 9.894531 -9.796875 9.269531 -10.0625 8.46875 -10.0625 C 7.613281 -10.0625 6.921875 -9.765625 6.390625 -9.171875 C 5.867188 -8.585938 5.609375 -7.785156 5.609375 -6.765625 L 5.609375 0 Z M 1.875 0 "/></g></g><g style="fill:#000000;fill-opacity:1;"><g transform="translate(53.693451, 42.385628)"><path style="stroke:none" d="M 12.71875 0 L 12.71875 -6.9375 L 5.984375 -6.9375 L 5.984375 0 L 2.0625 0 L 2.0625 -17.21875 L 5.984375 -17.21875 L 5.984375 -10.609375 L 12.71875 -10.609375 L 12.71875 -17.21875 L 16.640625 -17.21875 L 16.640625 0 Z M 12.71875 0 "/></g></g><g style="fill:#000000;fill-opacity:1;"><g transform="translate(71.401263, 42.385628)"><path style="stroke:none" d="M 6.171875 0.25 C 4.648438 0.25 3.445312 -0.101562 2.5625 -0.8125 C 1.675781 -1.53125 1.234375 -2.515625 1.234375 -3.765625 C 1.234375 -4.960938 1.628906 -5.914062 2.421875 -6.625 C 3.222656 -7.34375 4.296875 -7.703125 5.640625 -7.703125 L 10.3125 -7.703125 L 10.3125 -8.296875 C 10.3125 -8.929688 10.082031 -9.441406 9.625 -9.828125 C 9.164062 -10.210938 8.566406 -10.40625 7.828125 -10.40625 C 7.222656 -10.40625 6.707031 -10.265625 6.28125 -9.984375 C 5.851562 -9.710938 5.582031 -9.347656 5.46875 -8.890625 L 1.875 -8.890625 C 2.101562 -10.296875 2.738281 -11.375 3.78125 -12.125 C 4.820312 -12.882812 6.160156 -13.265625 7.796875 -13.265625 C 9.734375 -13.265625 11.25 -12.773438 12.34375 -11.796875 C 13.4375 -10.816406 13.984375 -9.476562 13.984375 -7.78125 L 13.984375 0 L 11.203125 0 L 10.78125 -1.5 C 9.644531 -0.332031 8.109375 0.25 6.171875 0.25 Z M 4.921875 -3.90625 C 4.921875 -3.46875 5.113281 -3.113281 5.5 -2.84375 C 5.882812 -2.570312 6.394531 -2.4375 7.03125 -2.4375 C 7.96875 -2.4375 8.742188 -2.707031 9.359375 -3.25 C 9.972656 -3.789062 10.296875 -4.492188 10.328125 -5.359375 L 6.796875 -5.359375 C 6.234375 -5.359375 5.78125 -5.226562 5.4375 -4.96875 C 5.09375 -4.707031 4.921875 -4.351562 4.921875 -3.90625 Z M 4.921875 -3.90625 "/></g></g><g style="fill:#000000;fill-opacity:1;"><g transform="translate(86.010077, 42.385628)"><path style="stroke:none" d="M 1.875 0 L 1.875 -12.921875 L 4.65625 -12.921875 L 5.046875 -11.46875 C 5.566406 -12.070312 6.203125 -12.519531 6.953125 -12.8125 C 7.703125 -13.113281 8.5 -13.265625 9.34375 -13.265625 C 11.039062 -13.265625 12.367188 -12.738281 13.328125 -11.6875 C 14.285156 -10.632812 14.765625 -9.21875 14.765625 -7.4375 L 14.765625 0 L 11.03125 0 L 11.03125 -7.03125 C 11.03125 -7.988281 10.800781 -8.734375 10.34375 -9.265625 C 9.894531 -9.796875 9.269531 -10.0625 8.46875 -10.0625 C 7.613281 -10.0625 6.921875 -9.765625 6.390625 -9.171875 C 5.867188 -8.585938 5.609375 -7.785156 5.609375 -6.765625 L 5.609375 0 Z M 1.875 0 "/></g></g><g style="fill:#000000;fill-opacity:1;"><g transform="translate(101.405928, 42.385628)"><path style="stroke:none" d="M 7.53125 0.34375 C 6.25 0.34375 5.113281 0.0507812 4.125 -0.53125 C 3.144531 -1.113281 2.367188 -1.914062 1.796875 -2.9375 C 1.234375 -3.96875 0.953125 -5.144531 0.953125 -6.46875 C 0.953125 -7.800781 1.234375 -8.972656 1.796875 -9.984375 C 2.367188 -11.003906 3.144531 -11.804688 4.125 -12.390625 C 5.113281 -12.972656 6.25 -13.265625 7.53125 -13.265625 C 8.332031 -13.265625 9.078125 -13.144531 9.765625 -12.90625 C 10.453125 -12.664062 11.078125 -12.332031 11.640625 -11.90625 L 11.640625 -18.203125 L 15.375 -18.203125 L 15.375 0 L 12.59375 0 L 12.15625 -1.46875 C 11.582031 -0.894531 10.898438 -0.445312 10.109375 -0.125 C 9.328125 0.1875 8.46875 0.34375 7.53125 0.34375 Z M 4.65625 -6.46875 C 4.65625 -5.414062 4.984375 -4.550781 5.640625 -3.875 C 6.304688 -3.207031 7.164062 -2.875 8.21875 -2.875 C 9.269531 -2.875 10.125 -3.207031 10.78125 -3.875 C 11.4375 -4.550781 11.765625 -5.414062 11.765625 -6.46875 C 11.765625 -7.519531 11.4375 -8.378906 10.78125 -9.046875 C 10.125 -9.722656 9.269531 -10.0625 8.21875 -10.0625 C 7.164062 -10.0625 6.304688 -9.722656 5.640625 -9.046875 C 4.984375 -8.378906 4.65625 -7.519531 4.65625 -6.46875 Z M 4.65625 -6.46875 "/></g></g><g style="fill:#000000;fill-opacity:1;"><g transform="translate(117.662618, 42.385628)"><path style="stroke:none" d="M 6.84375 0.34375 C 5.65625 0.34375 4.625 0.15625 3.75 -0.21875 C 2.875 -0.59375 2.191406 -1.117188 1.703125 -1.796875 C 1.222656 -2.472656 0.984375 -3.257812 0.984375 -4.15625 L 4.65625 -4.15625 C 4.664062 -3.632812 4.867188 -3.21875 5.265625 -2.90625 C 5.660156 -2.59375 6.203125 -2.4375 6.890625 -2.4375 C 7.484375 -2.4375 7.941406 -2.546875 8.265625 -2.765625 C 8.597656 -2.984375 8.765625 -3.285156 8.765625 -3.671875 C 8.765625 -4.078125 8.539062 -4.414062 8.09375 -4.6875 C 7.65625 -4.957031 6.9375 -5.175781 5.9375 -5.34375 C 4.289062 -5.632812 3.082031 -6.109375 2.3125 -6.765625 C 1.539062 -7.421875 1.15625 -8.28125 1.15625 -9.34375 C 1.15625 -10.613281 1.625 -11.582031 2.5625 -12.25 C 3.507812 -12.925781 4.851562 -13.265625 6.59375 -13.265625 C 8.3125 -13.265625 9.660156 -12.894531 10.640625 -12.15625 C 11.617188 -11.414062 12.148438 -10.363281 12.234375 -9 L 8.65625 -9 C 8.625 -9.5 8.421875 -9.882812 8.046875 -10.15625 C 7.679688 -10.425781 7.191406 -10.5625 6.578125 -10.5625 C 6.015625 -10.5625 5.570312 -10.453125 5.25 -10.234375 C 4.9375 -10.023438 4.78125 -9.726562 4.78125 -9.34375 C 4.78125 -8.957031 4.988281 -8.648438 5.40625 -8.421875 C 5.820312 -8.203125 6.578125 -7.976562 7.671875 -7.75 C 10.859375 -7.113281 12.453125 -5.742188 12.453125 -3.640625 C 12.453125 -2.410156 11.953125 -1.4375 10.953125 -0.71875 C 9.960938 -0.0078125 8.59375 0.34375 6.84375 0.34375 Z M 6.84375 0.34375 "/></g></g></g></svg>