<svg xmlns="http://www.w3.org/2000/svg" xmlns:xlink="http://www.w3.org/1999/xlink" width="1024" zoomAndPan="magnify" viewBox="0 0 768 767.999994" height="1024" preserveAspectRatio="xMidYMid meet" version="1.2"><g id="04d252c518"><path style="fill:none;stroke-width:4;stroke-linecap:butt;stroke-linejoin:miter;stroke:#ffffff;stroke-opacity:1;stroke-miterlimit:4;" d="M 0.00218023 2.00107 L 175.106361 2.00107 " transform="matrix(0.749598,0,0,0.749598,308.111647,382.500001)"/><path style=" stroke:none;fill-rule:nonzero;fill:#ffffff;fill-opacity:1;" d="M 660.285156 450.070312 C 659.152344 450.066406 658.023438 450.007812 656.898438 449.894531 C 655.773438 449.78125 654.65625 449.613281 653.550781 449.390625 C 652.441406 449.167969 651.34375 448.890625 650.261719 448.558594 C 649.183594 448.230469 648.117188 447.847656 647.074219 447.414062 C 646.03125 446.980469 645.007812 446.496094 644.011719 445.960938 C 643.015625 445.425781 642.046875 444.84375 641.109375 444.214844 C 640.167969 443.585938 639.261719 442.914062 638.386719 442.195312 C 637.511719 441.476562 636.675781 440.71875 635.875 439.917969 C 635.078125 439.117188 634.316406 438.28125 633.601562 437.40625 C 632.882812 436.535156 632.207031 435.625 631.578125 434.6875 C 630.949219 433.746094 630.367188 432.777344 629.835938 431.78125 C 629.300781 430.785156 628.816406 429.765625 628.382812 428.71875 C 627.949219 427.675781 627.566406 426.613281 627.234375 425.53125 C 626.902344 424.449219 626.628906 423.355469 626.40625 422.246094 C 626.179688 421.136719 626.011719 420.019531 625.898438 418.894531 C 625.785156 417.769531 625.726562 416.640625 625.722656 415.511719 L 625.722656 300.308594 C 625.730469 273.417969 629.53125 247.074219 637.128906 221.277344 C 634.292969 216.773438 631.335938 212.34375 628.265625 207.996094 C 625.191406 203.648438 622.003906 199.386719 618.707031 195.207031 C 615.40625 191.03125 611.996094 186.945312 608.476562 182.949219 C 604.960938 178.953125 601.335938 175.054688 597.613281 171.25 C 593.886719 167.449219 590.058594 163.746094 586.136719 160.148438 C 582.214844 156.550781 578.195312 153.058594 574.085938 149.675781 C 569.976562 146.289062 565.777344 143.019531 561.496094 139.859375 C 557.210938 136.699219 552.84375 133.652344 548.398438 130.726562 C 543.949219 127.800781 539.425781 124.992188 534.832031 122.308594 C 530.234375 119.621094 525.570312 117.058594 520.835938 114.621094 C 516.101562 112.183594 511.308594 109.875 506.449219 107.695312 C 501.59375 105.515625 496.683594 103.464844 491.714844 101.542969 C 486.75 99.625 481.734375 97.839844 476.675781 96.1875 C 471.613281 94.539062 466.511719 93.023438 461.371094 91.640625 C 456.226562 90.261719 451.050781 89.023438 445.84375 87.917969 C 440.636719 86.816406 435.402344 85.851562 430.140625 85.027344 C 424.882812 84.203125 419.601562 83.519531 414.304688 82.980469 C 409.011719 82.4375 403.703125 82.035156 398.386719 81.777344 C 393.066406 81.519531 387.746094 81.402344 382.421875 81.425781 C 377.097656 81.449219 371.78125 81.617188 366.464844 81.925781 C 361.148438 82.234375 355.847656 82.6875 350.554688 83.277344 C 345.265625 83.867188 339.992188 84.601562 334.742188 85.472656 C 329.488281 86.347656 324.265625 87.359375 319.066406 88.511719 C 313.867188 89.664062 308.703125 90.953125 303.574219 92.378906 C 298.445312 93.808594 293.359375 95.371094 288.3125 97.070312 C 283.269531 98.769531 278.269531 100.601562 273.324219 102.566406 C 268.375 104.53125 263.484375 106.628906 258.648438 108.855469 C 253.8125 111.082031 249.039062 113.433594 244.328125 115.914062 C 239.617188 118.398438 234.976562 121 230.402344 123.730469 C 225.832031 126.460938 221.335938 129.308594 216.917969 132.277344 C 212.5 135.246094 208.160156 138.332031 203.90625 141.53125 C 199.652344 144.730469 195.484375 148.042969 191.40625 151.464844 L 199.472656 263.328125 C 199.539062 265.761719 199.523438 268.191406 199.417969 270.625 C 199.3125 273.058594 199.125 275.480469 198.851562 277.902344 C 198.574219 280.320312 198.214844 282.726562 197.769531 285.117188 C 197.324219 287.511719 196.792969 289.886719 196.179688 292.242188 C 195.566406 294.597656 194.871094 296.929688 194.089844 299.234375 C 193.3125 301.539062 192.453125 303.816406 191.515625 306.0625 C 190.574219 308.308594 189.558594 310.519531 188.460938 312.691406 C 187.363281 314.863281 186.195312 316.996094 184.945312 319.085938 C 183.699219 321.179688 182.382812 323.222656 180.988281 325.21875 C 179.597656 327.21875 178.136719 329.164062 176.609375 331.054688 C 175.078125 332.949219 173.484375 334.789062 171.828125 336.570312 C 170.167969 338.351562 168.445312 340.070312 166.667969 341.730469 C 164.886719 343.390625 163.046875 344.984375 161.152344 346.515625 C 159.261719 348.042969 157.316406 349.503906 155.316406 350.894531 C 153.320312 352.289062 151.277344 353.605469 149.1875 354.855469 C 147.097656 356.101562 144.964844 357.273438 142.789062 358.371094 L 150.96875 569.191406 C 155.179688 574.402344 159.554688 579.464844 164.105469 584.382812 C 168.652344 589.300781 173.359375 594.058594 178.226562 598.660156 C 183.09375 603.261719 188.109375 607.695312 193.273438 611.957031 C 198.4375 616.222656 203.738281 620.308594 209.179688 624.21875 C 214.617188 628.125 220.179688 631.847656 225.871094 635.382812 C 231.558594 638.917969 237.359375 642.257812 243.273438 645.402344 C 249.1875 648.550781 255.199219 651.492188 261.308594 654.234375 C 267.417969 656.976562 273.613281 659.511719 279.894531 661.835938 C 286.175781 664.164062 292.527344 666.277344 298.949219 668.175781 C 305.371094 670.078125 311.851562 671.757812 318.386719 673.222656 C 324.921875 674.6875 331.5 675.933594 338.117188 676.957031 C 344.738281 677.980469 351.382812 678.78125 358.054688 679.359375 C 364.726562 679.9375 371.414062 680.289062 378.109375 680.417969 C 384.804688 680.546875 391.5 680.449219 398.1875 680.128906 C 404.878906 679.808594 411.550781 679.265625 418.203125 678.496094 C 424.855469 677.726562 431.476562 676.738281 438.0625 675.523438 C 444.652344 674.3125 451.191406 672.878906 457.679688 671.230469 C 464.171875 669.578125 470.597656 667.710938 476.964844 665.625 C 483.328125 663.542969 489.617188 661.25 495.828125 658.746094 C 502.042969 656.238281 508.160156 653.527344 514.191406 650.613281 C 520.222656 647.695312 526.144531 644.582031 531.964844 641.269531 C 537.785156 637.953125 543.488281 634.449219 549.074219 630.753906 C 554.660156 627.054688 560.113281 623.175781 565.441406 619.113281 C 570.765625 615.050781 575.945312 610.816406 580.988281 606.40625 C 586.027344 601.996094 590.914062 597.417969 595.648438 592.679688 C 600.382812 587.941406 604.949219 583.050781 609.355469 578.003906 C 613.761719 572.960938 617.992188 567.773438 622.046875 562.445312 C 626.105469 557.113281 629.976562 551.65625 633.667969 546.066406 C 637.359375 540.476562 640.859375 534.769531 644.164062 528.945312 C 647.472656 523.121094 650.582031 517.195312 653.492188 511.160156 C 656.398438 505.128906 659.105469 499.003906 661.601562 492.792969 C 664.101562 486.578125 666.386719 480.285156 668.464844 473.917969 L 669.847656 450.070312 Z M 383.796875 576.796875 C 380.589844 576.796875 377.386719 576.714844 374.1875 576.558594 C 370.984375 576.402344 367.789062 576.167969 364.601562 575.851562 C 361.410156 575.539062 358.230469 575.144531 355.058594 574.675781 C 351.890625 574.203125 348.730469 573.65625 345.589844 573.03125 C 342.445312 572.40625 339.320312 571.703125 336.210938 570.925781 C 333.101562 570.148438 330.011719 569.292969 326.945312 568.363281 C 323.878906 567.429688 320.835938 566.425781 317.816406 565.347656 C 314.800781 564.265625 311.8125 563.113281 308.847656 561.886719 C 305.886719 560.660156 302.957031 559.363281 300.0625 557.992188 C 297.164062 556.621094 294.300781 555.179688 291.476562 553.667969 C 288.648438 552.160156 285.859375 550.578125 283.113281 548.933594 C 280.363281 547.285156 277.65625 545.570312 274.992188 543.789062 C 272.324219 542.007812 269.707031 540.164062 267.132812 538.253906 C 264.558594 536.34375 262.03125 534.375 259.554688 532.339844 C 257.074219 530.308594 254.648438 528.214844 252.273438 526.0625 C 249.898438 523.910156 247.578125 521.699219 245.3125 519.433594 C 243.046875 517.167969 240.835938 514.847656 238.683594 512.472656 C 236.53125 510.097656 234.4375 507.671875 232.40625 505.191406 C 230.371094 502.714844 228.402344 500.1875 226.492188 497.613281 C 224.582031 495.039062 222.738281 492.421875 220.957031 489.753906 C 219.175781 487.089844 217.460938 484.382812 215.8125 481.632812 C 214.167969 478.886719 212.585938 476.097656 211.074219 473.269531 C 209.566406 470.445312 208.125 467.582031 206.753906 464.683594 C 205.382812 461.785156 204.085938 458.855469 202.859375 455.894531 C 201.632812 452.933594 200.480469 449.945312 199.398438 446.925781 C 198.320312 443.910156 197.3125 440.867188 196.382812 437.800781 C 195.453125 434.734375 194.597656 431.644531 193.820312 428.535156 C 193.042969 425.425781 192.339844 422.300781 191.714844 419.15625 C 191.089844 416.011719 190.539062 412.855469 190.070312 409.6875 C 189.601562 406.515625 189.207031 403.335938 188.894531 400.144531 C 188.578125 396.957031 188.34375 393.761719 188.1875 390.558594 C 188.027344 387.359375 187.949219 384.15625 187.949219 380.949219 C 187.949219 377.746094 188.027344 374.539062 188.1875 371.339844 C 188.34375 368.136719 188.578125 364.941406 188.894531 361.753906 C 189.207031 358.5625 189.601562 355.382812 190.070312 352.210938 C 190.539062 349.042969 191.089844 345.886719 191.714844 342.742188 C 192.339844 339.597656 193.042969 336.472656 193.820312 333.363281 C 194.597656 330.253906 195.453125 327.164062 196.382812 324.097656 C 197.3125 321.03125 198.320312 317.988281 199.398438 314.972656 C 200.480469 311.953125 201.632812 308.964844 202.859375 306.003906 C 204.085938 303.042969 205.382812 300.113281 206.753906 297.214844 C 208.125 294.316406 209.566406 291.453125 211.074219 288.628906 C 212.585938 285.800781 214.167969 283.015625 215.8125 280.265625 C 217.460938 277.515625 219.175781 274.808594 220.957031 272.144531 C 222.738281 269.476562 224.582031 266.859375 226.492188 264.285156 C 228.402344 261.710938 230.371094 259.183594 232.40625 256.707031 C 234.4375 254.230469 236.53125 251.800781 238.683594 249.425781 C 240.835938 247.050781 243.046875 244.730469 245.3125 242.464844 C 247.578125 240.199219 249.898438 237.988281 252.273438 235.835938 C 254.648438 233.683594 257.074219 231.59375 259.554688 229.558594 C 262.03125 227.523438 264.558594 225.554688 267.132812 223.644531 C 269.707031 221.734375 272.324219 219.890625 274.992188 218.109375 C 277.65625 216.328125 280.363281 214.613281 283.113281 212.96875 C 285.859375 211.320312 288.648438 209.738281 291.476562 208.230469 C 294.300781 206.71875 297.164062 205.277344 300.0625 203.90625 C 302.957031 202.535156 305.886719 201.238281 308.847656 200.011719 C 311.8125 198.785156 314.800781 197.632812 317.816406 196.550781 C 320.835938 195.472656 323.878906 194.46875 326.945312 193.535156 C 330.011719 192.605469 333.101562 191.75 336.210938 190.972656 C 339.320312 190.195312 342.445312 189.492188 345.589844 188.867188 C 348.730469 188.242188 351.890625 187.695312 355.058594 187.222656 C 358.230469 186.753906 361.410156 186.359375 364.601562 186.046875 C 367.789062 185.734375 370.984375 185.496094 374.1875 185.339844 C 377.386719 185.183594 380.589844 185.105469 383.796875 185.105469 C 387 185.105469 390.203125 185.183594 393.40625 185.339844 C 396.605469 185.496094 399.804688 185.734375 402.992188 186.046875 C 406.183594 186.359375 409.363281 186.753906 412.53125 187.222656 C 415.703125 187.695312 418.859375 188.242188 422.003906 188.867188 C 425.148438 189.492188 428.273438 190.195312 431.382812 190.972656 C 434.492188 191.75 437.582031 192.605469 440.648438 193.535156 C 443.714844 194.46875 446.757812 195.472656 449.773438 196.550781 C 452.792969 197.632812 455.78125 198.785156 458.742188 200.011719 C 461.703125 201.238281 464.632812 202.535156 467.53125 203.90625 C 470.429688 205.277344 473.289062 206.71875 476.117188 208.230469 C 478.945312 209.738281 481.730469 211.320312 484.480469 212.96875 C 487.230469 214.613281 489.9375 216.328125 492.601562 218.109375 C 495.265625 219.890625 497.886719 221.734375 500.460938 223.644531 C 503.035156 225.554688 505.5625 227.523438 508.039062 229.558594 C 510.515625 231.59375 512.941406 233.683594 515.316406 235.835938 C 517.691406 237.988281 520.015625 240.199219 522.28125 242.464844 C 524.546875 244.730469 526.753906 247.050781 528.910156 249.425781 C 531.0625 251.800781 533.152344 254.230469 535.1875 256.707031 C 537.21875 259.183594 539.191406 261.710938 541.101562 264.285156 C 543.011719 266.859375 544.855469 269.476562 546.636719 272.144531 C 548.417969 274.808594 550.132812 277.515625 551.777344 280.265625 C 553.425781 283.015625 555.003906 285.800781 556.515625 288.628906 C 558.027344 291.453125 559.46875 294.316406 560.839844 297.214844 C 562.210938 300.113281 563.507812 303.042969 564.734375 306.003906 C 565.960938 308.964844 567.113281 311.953125 568.195312 314.972656 C 569.273438 317.988281 570.277344 321.03125 571.207031 324.097656 C 572.140625 327.164062 572.992188 330.253906 573.773438 333.363281 C 574.550781 336.472656 575.253906 339.597656 575.878906 342.742188 C 576.503906 345.886719 577.050781 349.042969 577.523438 352.210938 C 577.992188 355.382812 578.382812 358.5625 578.699219 361.753906 C 579.011719 364.941406 579.25 368.136719 579.40625 371.339844 C 579.5625 374.539062 579.640625 377.746094 579.640625 380.949219 C 579.640625 384.15625 579.5625 387.359375 579.40625 390.558594 C 579.25 393.761719 579.011719 396.957031 578.699219 400.144531 C 578.382812 403.335938 577.992188 406.515625 577.523438 409.6875 C 577.050781 412.855469 576.503906 416.011719 575.878906 419.15625 C 575.253906 422.300781 574.550781 425.425781 573.773438 428.535156 C 572.992188 431.644531 572.140625 434.734375 571.207031 437.800781 C 570.277344 440.867188 569.273438 443.910156 568.195312 446.929688 C 567.113281 449.945312 565.960938 452.933594 564.734375 455.894531 C 563.507812 458.859375 562.210938 461.785156 560.839844 464.683594 C 559.46875 467.582031 558.027344 470.445312 556.515625 473.269531 C 555.003906 476.097656 553.425781 478.886719 551.777344 481.632812 C 550.132812 484.382812 548.417969 487.089844 546.636719 489.753906 C 544.855469 492.421875 543.011719 495.039062 541.101562 497.613281 C 539.191406 500.1875 537.21875 502.714844 535.1875 505.191406 C 533.152344 507.671875 531.0625 510.097656 528.910156 512.472656 C 526.753906 514.847656 524.546875 517.167969 522.28125 519.433594 C 520.015625 521.699219 517.691406 523.910156 515.316406 526.0625 C 512.941406 528.214844 510.515625 530.308594 508.039062 532.339844 C 505.5625 534.375 503.035156 536.34375 500.460938 538.253906 C 497.886719 540.164062 495.265625 542.007812 492.601562 543.789062 C 489.9375 545.570312 487.230469 547.285156 484.480469 548.933594 C 481.730469 550.578125 478.945312 552.160156 476.117188 553.667969 C 473.289062 555.179688 470.429688 556.621094 467.53125 557.992188 C 464.632812 559.363281 461.703125 560.660156 458.742188 561.886719 C 455.78125 563.113281 452.792969 564.265625 449.773438 565.347656 C 446.757812 566.425781 443.714844 567.429688 440.648438 568.363281 C 437.582031 569.292969 434.492188 570.148438 431.382812 570.925781 C 428.273438 571.703125 425.148438 572.40625 422.003906 573.03125 C 418.859375 573.65625 415.703125 574.203125 412.53125 574.675781 C 409.363281 575.144531 406.183594 575.539062 402.992188 575.851562 C 399.804688 576.167969 396.605469 576.402344 393.40625 576.558594 C 390.203125 576.714844 387 576.796875 383.796875 576.796875 Z M 383.796875 576.796875 "/><path style=" stroke:none;fill-rule:nonzero;fill:#ffffff;fill-opacity:1;" d="M 441.398438 288.785156 C 407.988281 288.785156 383.796875 323.347656 383.796875 323.347656 C 383.796875 323.347656 359.605469 288.785156 326.195312 288.785156 C 292.785156 288.785156 268.59375 317.035156 268.59375 357.910156 C 268.59375 406.226562 335.480469 481.292969 383.796875 496.152344 C 432.113281 481.292969 499 406.226562 499 357.910156 C 499 317.035156 474.808594 288.785156 441.398438 288.785156 Z M 441.398438 288.785156 "/><path style=" stroke:none;fill-rule:nonzero;fill:#ffffff;fill-opacity:1;" d="M 745.742188 105.519531 C 744.742188 105.054688 743.699219 104.742188 742.609375 104.578125 C 741.519531 104.417969 740.429688 104.410156 739.335938 104.5625 C 738.246094 104.714844 737.199219 105.019531 736.195312 105.476562 C 735.191406 105.929688 734.273438 106.515625 733.4375 107.238281 C 726.847656 113.417969 720.585938 119.917969 714.652344 126.730469 C 708.71875 133.546875 703.144531 140.640625 697.925781 148.019531 C 692.710938 155.398438 687.878906 163.019531 683.433594 170.886719 C 678.988281 178.753906 674.953125 186.824219 671.324219 195.097656 C 667.695312 203.375 664.492188 211.808594 661.714844 220.410156 C 658.941406 229.007812 656.605469 237.722656 654.710938 246.558594 C 652.816406 255.394531 651.371094 264.300781 650.378906 273.28125 C 649.386719 282.261719 648.847656 291.273438 648.765625 300.308594 L 648.765625 415.511719 C 648.765625 416.265625 648.835938 417.015625 648.984375 417.757812 C 649.132812 418.5 649.351562 419.21875 649.640625 419.917969 C 649.929688 420.617188 650.285156 421.28125 650.707031 421.910156 C 651.125 422.539062 651.601562 423.121094 652.136719 423.65625 C 652.671875 424.191406 653.253906 424.667969 653.882812 425.089844 C 654.511719 425.507812 655.175781 425.863281 655.875 426.152344 C 656.574219 426.441406 657.292969 426.660156 658.035156 426.808594 C 658.777344 426.957031 659.527344 427.03125 660.285156 427.03125 L 694.1875 427.03125 L 683.324219 622.875 C 683.324219 624.007812 683.378906 625.136719 683.492188 626.265625 C 683.601562 627.390625 683.769531 628.507812 683.988281 629.617188 C 684.210938 630.730469 684.484375 631.824219 684.8125 632.910156 C 685.140625 633.992188 685.523438 635.054688 685.957031 636.101562 C 686.390625 637.148438 686.871094 638.171875 687.40625 639.167969 C 687.9375 640.167969 688.519531 641.136719 689.148438 642.078125 C 689.777344 643.019531 690.453125 643.925781 691.167969 644.800781 C 691.886719 645.675781 692.648438 646.515625 693.449219 647.316406 C 694.246094 648.113281 695.085938 648.875 695.960938 649.59375 C 696.835938 650.308594 697.742188 650.984375 698.683594 651.613281 C 699.625 652.242188 700.59375 652.824219 701.59375 653.355469 C 702.59375 653.890625 703.613281 654.375 704.660156 654.804688 C 705.707031 655.238281 706.769531 655.621094 707.851562 655.949219 C 708.9375 656.277344 710.035156 656.550781 711.144531 656.773438 C 712.253906 656.992188 713.371094 657.160156 714.5 657.269531 C 715.625 657.382812 716.753906 657.4375 717.886719 657.4375 C 719.019531 657.4375 720.148438 657.382812 721.273438 657.269531 C 722.398438 657.160156 723.519531 656.992188 724.628906 656.773438 C 725.738281 656.550781 726.835938 656.277344 727.917969 655.949219 C 729 655.621094 730.066406 655.238281 731.113281 654.804688 C 732.15625 654.375 733.179688 653.890625 734.179688 653.355469 C 735.175781 652.824219 736.144531 652.242188 737.085938 651.613281 C 738.027344 650.984375 738.9375 650.308594 739.8125 649.59375 C 740.6875 648.875 741.523438 648.113281 742.324219 647.316406 C 743.125 646.515625 743.882812 645.675781 744.601562 644.800781 C 745.320312 643.925781 745.992188 643.019531 746.621094 642.078125 C 747.25 641.136719 747.832031 640.167969 748.367188 639.167969 C 748.898438 638.171875 749.382812 637.148438 749.816406 636.101562 C 750.25 635.054688 750.628906 633.992188 750.957031 632.910156 C 751.289062 631.824219 751.5625 630.730469 751.78125 629.617188 C 752.003906 628.507812 752.167969 627.390625 752.28125 626.265625 C 752.390625 625.136719 752.445312 624.007812 752.445312 622.875 L 752.445312 115.980469 C 752.445312 114.878906 752.292969 113.800781 751.980469 112.746094 C 751.671875 111.6875 751.21875 110.695312 750.625 109.769531 C 750.03125 108.84375 749.320312 108.019531 748.488281 107.296875 C 747.65625 106.574219 746.742188 105.980469 745.742188 105.519531 Z M 745.742188 105.519531 "/><path style=" stroke:none;fill-rule:nonzero;fill:#ffffff;fill-opacity:1;" d="M 176.429688 264.941406 L 164.910156 103.65625 C 164.855469 102.898438 164.730469 102.15625 164.53125 101.421875 C 164.332031 100.691406 164.0625 99.984375 163.722656 99.308594 C 163.386719 98.628906 162.984375 97.988281 162.519531 97.390625 C 162.054688 96.789062 161.539062 96.242188 160.964844 95.746094 C 160.394531 95.246094 159.777344 94.8125 159.121094 94.433594 C 158.460938 94.058594 157.773438 93.75 157.054688 93.507812 C 156.335938 93.269531 155.597656 93.101562 154.847656 93.003906 C 154.09375 92.910156 153.339844 92.886719 152.582031 92.941406 C 151.828125 92.992188 151.082031 93.121094 150.351562 93.320312 C 149.621094 93.519531 148.914062 93.789062 148.234375 94.125 C 147.558594 94.464844 146.917969 94.867188 146.320312 95.332031 C 145.71875 95.792969 145.171875 96.3125 144.671875 96.886719 C 144.175781 97.457031 143.738281 98.074219 143.363281 98.730469 C 142.988281 99.390625 142.679688 100.078125 142.4375 100.796875 C 142.195312 101.515625 142.027344 102.253906 141.933594 103.003906 C 141.835938 103.757812 141.816406 104.511719 141.871094 105.269531 L 150.046875 219.664062 L 130.347656 219.664062 L 130.347656 104.460938 C 130.347656 103.703125 130.273438 102.957031 130.128906 102.214844 C 129.980469 101.472656 129.761719 100.75 129.472656 100.050781 C 129.183594 99.355469 128.828125 98.691406 128.40625 98.0625 C 127.988281 97.433594 127.507812 96.851562 126.976562 96.316406 C 126.441406 95.78125 125.859375 95.304688 125.230469 94.882812 C 124.601562 94.460938 123.9375 94.105469 123.238281 93.816406 C 122.539062 93.527344 121.816406 93.308594 121.074219 93.164062 C 120.335938 93.015625 119.585938 92.941406 118.828125 92.941406 C 118.070312 92.941406 117.324219 93.015625 116.582031 93.164062 C 115.839844 93.308594 115.117188 93.527344 114.421875 93.816406 C 113.722656 94.105469 113.058594 94.460938 112.429688 94.882812 C 111.800781 95.304688 111.21875 95.78125 110.683594 96.316406 C 110.148438 96.851562 109.671875 97.433594 109.25 98.0625 C 108.828125 98.691406 108.476562 99.355469 108.183594 100.050781 C 107.894531 100.75 107.675781 101.472656 107.53125 102.214844 C 107.382812 102.957031 107.308594 103.703125 107.308594 104.460938 L 107.308594 219.664062 L 84.269531 219.664062 L 84.269531 104.460938 C 84.269531 103.703125 84.195312 102.957031 84.046875 102.214844 C 83.898438 101.472656 83.679688 100.75 83.390625 100.050781 C 83.101562 99.355469 82.746094 98.691406 82.324219 98.0625 C 81.90625 97.433594 81.429688 96.851562 80.894531 96.316406 C 80.359375 95.78125 79.777344 95.304688 79.148438 94.882812 C 78.519531 94.460938 77.855469 94.105469 77.15625 93.816406 C 76.457031 93.527344 75.738281 93.308594 74.996094 93.164062 C 74.253906 93.015625 73.503906 92.941406 72.746094 92.941406 C 71.992188 92.941406 71.242188 93.015625 70.5 93.164062 C 69.757812 93.308594 69.039062 93.527344 68.339844 93.816406 C 67.640625 94.105469 66.976562 94.460938 66.347656 94.882812 C 65.71875 95.304688 65.136719 95.78125 64.601562 96.316406 C 64.066406 96.851562 63.589844 97.433594 63.167969 98.0625 C 62.75 98.691406 62.394531 99.355469 62.105469 100.050781 C 61.8125 100.75 61.597656 101.472656 61.449219 102.214844 C 61.300781 102.957031 61.226562 103.703125 61.226562 104.460938 L 61.226562 219.664062 L 41.527344 219.664062 L 49.707031 105.269531 C 49.761719 104.511719 49.738281 103.757812 49.644531 103.003906 C 49.546875 102.25 49.378906 101.515625 49.140625 100.796875 C 48.898438 100.078125 48.589844 99.386719 48.214844 98.730469 C 47.839844 98.070312 47.402344 97.457031 46.902344 96.882812 C 46.40625 96.308594 45.859375 95.792969 45.257812 95.328125 C 44.660156 94.863281 44.019531 94.460938 43.339844 94.121094 C 42.664062 93.785156 41.957031 93.515625 41.226562 93.316406 C 40.492188 93.117188 39.75 92.988281 38.992188 92.9375 C 38.238281 92.882812 37.480469 92.90625 36.730469 93 C 35.976562 93.097656 35.242188 93.265625 34.523438 93.503906 C 33.804688 93.746094 33.113281 94.054688 32.457031 94.429688 C 31.796875 94.808594 31.179688 95.246094 30.609375 95.742188 C 30.035156 96.238281 29.519531 96.789062 29.054688 97.386719 C 28.589844 97.988281 28.1875 98.628906 27.851562 99.304688 C 27.511719 99.984375 27.242188 100.691406 27.042969 101.421875 C 26.84375 102.152344 26.71875 102.898438 26.664062 103.65625 L 15.144531 265.054688 C 15.140625 267.222656 15.21875 269.382812 15.386719 271.542969 C 15.550781 273.703125 15.804688 275.855469 16.140625 277.992188 C 16.476562 280.132812 16.894531 282.257812 17.398438 284.363281 C 17.902344 286.472656 18.488281 288.554688 19.160156 290.613281 C 19.828125 292.675781 20.578125 294.707031 21.40625 296.707031 C 22.238281 298.707031 23.144531 300.671875 24.128906 302.601562 C 25.113281 304.53125 26.175781 306.417969 27.308594 308.265625 C 28.445312 310.109375 29.648438 311.90625 30.925781 313.65625 C 32.203125 315.40625 33.546875 317.105469 34.960938 318.746094 C 36.371094 320.390625 37.84375 321.976562 39.382812 323.503906 C 40.917969 325.027344 42.511719 326.492188 44.167969 327.894531 C 45.820312 329.292969 47.523438 330.625 49.28125 331.890625 C 51.039062 333.15625 52.847656 334.351562 54.699219 335.472656 C 56.550781 336.597656 58.445312 337.644531 60.382812 338.617188 C 62.316406 339.589844 64.289062 340.484375 66.292969 341.300781 C 68.300781 342.117188 70.335938 342.851562 72.402344 343.507812 L 61.226562 633.9375 C 61.144531 636.175781 61.292969 638.402344 61.664062 640.613281 C 62.039062 642.824219 62.632812 644.972656 63.445312 647.0625 C 64.257812 649.152344 65.269531 651.140625 66.488281 653.023438 C 67.707031 654.90625 69.101562 656.644531 70.671875 658.242188 C 71.484375 659.089844 72.332031 659.890625 73.222656 660.648438 C 74.113281 661.40625 75.042969 662.121094 76.003906 662.785156 C 76.964844 663.449219 77.960938 664.066406 78.984375 664.632812 C 80.007812 665.195312 81.058594 665.707031 82.136719 666.167969 C 83.210938 666.625 84.308594 667.03125 85.425781 667.378906 C 86.542969 667.726562 87.675781 668.019531 88.820312 668.253906 C 89.96875 668.488281 91.121094 668.664062 92.285156 668.78125 C 93.449219 668.898438 94.617188 668.957031 95.789062 668.957031 C 96.957031 668.957031 98.125 668.898438 99.289062 668.78125 C 100.453125 668.664062 101.609375 668.488281 102.753906 668.253906 C 103.902344 668.019531 105.035156 667.726562 106.148438 667.378906 C 107.265625 667.03125 108.363281 666.625 109.441406 666.167969 C 110.515625 665.707031 111.566406 665.195312 112.589844 664.632812 C 113.617188 664.066406 114.609375 663.449219 115.570312 662.785156 C 116.535156 662.121094 117.460938 661.40625 118.351562 660.648438 C 119.242188 659.890625 120.09375 659.089844 120.902344 658.242188 C 122.476562 656.644531 123.871094 654.90625 125.085938 653.023438 C 126.304688 651.140625 127.320312 649.152344 128.132812 647.0625 C 128.945312 644.972656 129.535156 642.824219 129.910156 640.613281 C 130.285156 638.402344 130.429688 636.175781 130.347656 633.9375 L 119.175781 343.507812 C 121.242188 342.851562 123.277344 342.113281 125.285156 341.296875 C 127.296875 340.476562 129.269531 339.582031 131.207031 338.605469 C 133.140625 337.632812 135.039062 336.582031 136.890625 335.457031 C 138.746094 334.335938 140.554688 333.136719 142.3125 331.871094 C 144.070312 330.601562 145.777344 329.265625 147.433594 327.863281 C 149.085938 326.460938 150.679688 324.996094 152.21875 323.464844 C 153.757812 321.9375 155.230469 320.351562 156.644531 318.703125 C 158.054688 317.058594 159.398438 315.359375 160.675781 313.605469 C 161.953125 311.851562 163.160156 310.054688 164.292969 308.203125 C 165.429688 306.355469 166.488281 304.464844 167.472656 302.535156 C 168.457031 300.601562 169.363281 298.636719 170.195312 296.632812 C 171.023438 294.628906 171.769531 292.59375 172.4375 290.53125 C 173.105469 288.46875 173.691406 286.382812 174.195312 284.273438 C 174.695312 282.160156 175.117188 280.035156 175.449219 277.894531 C 175.785156 275.75 176.03125 273.597656 176.195312 271.4375 C 176.359375 269.273438 176.4375 267.109375 176.429688 264.941406 Z M 176.429688 264.941406 "/></g></svg>