<svg xmlns="http://www.w3.org/2000/svg" xmlns:xlink="http://www.w3.org/1999/xlink" width="1024" zoomAndPan="magnify" viewBox="0 0 768 767.999994" height="1024" preserveAspectRatio="xMidYMid meet" version="1.2"><defs><clipPath id="85e55bb9f4"><path d="M 34 38.398438 L 736 38.398438 L 736 729.898438 L 34 729.898438 Z M 34 38.398438 "/></clipPath></defs><g id="2eac66c39c"><g clip-rule="nonzero" clip-path="url(#85e55bb9f4)"><path style=" stroke:none;fill-rule:nonzero;fill:#ffffff;fill-opacity:1;" d="M 301.40625 38 C 280.449219 38 263.375 55.011719 262.640625 75.761719 C 262.53125 77.816406 260.0625 78.820312 258.566406 77.417969 C 258.328125 77.179688 258.152344 77.003906 258.039062 76.894531 C 258.023438 76.894531 257.992188 76.878906 257.976562 76.863281 C 250.523438 69.265625 240.570312 65.265625 230.628906 65.140625 C 220.675781 64.996094 210.578125 68.660156 202.917969 76.144531 C 187.628906 91.082031 187.472656 115.878906 202.328125 131.167969 L 202.394531 131.234375 C 214.65625 144.691406 227.988281 157.191406 242.398438 168.53125 C 243.660156 169.503906 243.660156 171.398438 242.398438 172.355469 C 227.191406 184.21875 216.964844 202.34375 216.328125 222.316406 C 216.328125 222.347656 216.328125 222.394531 216.328125 222.441406 L 216.296875 222.472656 L 216.296875 222.539062 C 216.296875 222.570312 216.296875 222.617188 216.296875 222.664062 C 216.296875 222.714844 216.296875 222.839844 216.296875 223.09375 L 216.296875 223.144531 C 215.773438 251.746094 220.582031 278.867188 225.039062 304.398438 C 225.421875 306.582031 225.835938 308.792969 226.21875 310.992188 C 215.277344 287.484375 203.746094 264.472656 191.660156 243.527344 C 176.59375 217.394531 161.066406 194.222656 146.207031 175.523438 C 131.363281 156.828125 117.253906 142.683594 104.496094 134.132812 C 95.511719 128.097656 86.882812 124.800781 79.238281 124.910156 L 79.1875 124.910156 C 73.996094 125.085938 72.292969 126.152344 71.257812 126.28125 C 61.03125 129.992188 48.867188 138.433594 42.351562 153.945312 C 40.089844 159.3125 38.402344 165.410156 37.128906 172.003906 C 37.113281 172.066406 37.097656 172.132812 37.0625 172.195312 C 33.257812 191.976562 33.578125 216.054688 37.972656 237.175781 C 40.1875 247.765625 43.386719 257.480469 47.273438 266.542969 C 48.5625 269.550781 49.933594 272.484375 51.351562 275.382812 C 54.597656 282.023438 58.199219 288.25 61.796875 294.382812 C 61.910156 294.589844 62.003906 294.8125 62.050781 295.035156 C 69.585938 325.4375 82.101562 361.253906 94.621094 397.183594 C 94.652344 397.28125 94.652344 397.296875 94.683594 397.375 C 94.765625 397.472656 94.875 397.597656 94.875 397.597656 C 94.875 397.597656 94.875 397.664062 94.90625 397.695312 L 94.941406 397.726562 C 94.988281 397.804688 95.019531 397.886719 95.035156 397.917969 L 95.066406 397.949219 C 95.082031 397.980469 95.082031 398.011719 95.097656 398.011719 L 95.097656 398.042969 C 95.113281 398.078125 95.148438 398.140625 95.164062 398.171875 C 96.039062 400.449219 97.074219 402.804688 98.09375 405.148438 C 96.007812 407.011719 94.128906 409.097656 92.804688 411.484375 L 79.125 436.457031 C 74.9375 444.101562 75.097656 454.40625 79.523438 461.910156 C 83.949219 469.410156 92.996094 474.570312 101.707031 474.570312 L 103.667969 474.570312 C 106.328125 474.570312 108.683594 476.402344 109.320312 478.980469 L 154.027344 664.378906 C 158.4375 682.613281 169.15625 699.367188 183.792969 711.105469 C 183.824219 711.136719 183.855469 711.167969 183.886719 711.199219 L 184.015625 711.296875 C 184.523438 711.695312 185.226562 712.25 185.71875 712.632812 L 185.75 712.664062 C 185.71875 712.648438 185.816406 712.699219 185.816406 712.699219 C 200.179688 722.714844 220.105469 729.992188 237.414062 729.992188 L 525.121094 729.992188 C 544.121094 729.992188 563.265625 723.335938 578.1875 711.582031 C 593.109375 699.828125 604.003906 682.835938 608.480469 664.363281 L 653.246094 478.996094 C 653.898438 476.386719 656.242188 474.539062 658.933594 474.554688 L 660.828125 474.554688 C 669.539062 474.554688 678.601562 469.394531 683.046875 461.890625 C 687.488281 454.390625 687.632812 444.085938 683.441406 436.441406 L 670.65625 413.078125 L 685.992188 354.503906 C 698.84375 354.074219 710.375 345.488281 713.796875 332.382812 L 716.539062 321.902344 L 723.417969 295.65625 L 733.210938 258.117188 C 735.695312 248.578125 735.730469 239.039062 733.738281 230.054688 L 733.769531 230.054688 C 732.210938 223.621094 730.363281 216.851562 726.792969 210.117188 C 722.269531 201.546875 716.523438 195.113281 713.257812 188.871094 C 709.898438 182.484375 708.175781 176.558594 710.023438 160.777344 C 710.023438 160.695312 710.085938 160.570312 710.085938 160.488281 C 712.574219 160.410156 714.785156 160.21875 716.648438 159.867188 C 718.558594 159.519531 720.136719 159.007812 721.410156 158.277344 C 722.683594 157.542969 723.71875 156.507812 724.054688 155.171875 C 724.390625 153.832031 724.023438 152.414062 723.273438 151.15625 C 722.527344 149.898438 721.410156 148.703125 719.914062 147.460938 C 718.226562 146.042969 715.917969 144.578125 713.320312 143.082031 C 716.074219 129.304688 719.722656 113.683594 723.960938 96.976562 C 724.007812 96.832031 724.054688 96.691406 724.085938 96.546875 C 725.726562 90.273438 722.191406 83.820312 716.027344 81.796875 C 704.578125 75.636719 692.503906 70.632812 679.941406 67.210938 C 665.351562 63.230469 650.207031 60.777344 635.058594 60.679688 C 628.929688 59.882812 623.179688 63.785156 621.617188 69.757812 C 621.585938 69.871094 621.570312 69.980469 621.554688 70.09375 C 617.046875 86.785156 612.539062 102.183594 608.144531 115.59375 C 605.070312 115.640625 602.285156 115.816406 600.085938 116.246094 C 598.253906 116.613281 596.726562 117.105469 595.515625 117.839844 C 594.304688 118.574219 593.332031 119.574219 593 120.882812 C 592.664062 122.21875 593.03125 123.636719 593.777344 124.894531 C 594.527344 126.152344 595.640625 127.347656 597.140625 128.589844 C 598.574219 129.785156 600.402344 131.027344 602.492188 132.285156 C 602.425781 132.429688 602.363281 132.667969 602.300781 132.808594 C 596.183594 147.476562 591.773438 151.761719 585.71875 155.710938 C 579.8125 159.550781 571.65625 162.371094 563.503906 167.625 C 557.003906 171.859375 552.019531 176.957031 547.449219 181.878906 L 547.738281 181.941406 C 541.765625 188.710938 537.097656 196.769531 534.644531 206.148438 L 527.144531 234.769531 C 526.746094 234.484375 526.425781 234.085938 526.027344 233.796875 C 519.277344 229.242188 511.410156 226.234375 503.191406 225.582031 C 501.28125 225.421875 499.304688 225.375 497.410156 225.453125 C 491.757812 225.691406 486.246094 226.902344 480.957031 228.320312 C 473.917969 230.214844 467.214844 232.570312 460.460938 234.003906 C 458.136719 234.5 456.019531 234.53125 454.15625 234.785156 C 452.894531 234.945312 451.734375 234.101562 451.480469 232.859375 C 450.425781 227.539062 449.167969 222.234375 447.785156 216.996094 C 443.992188 202.789062 438.945312 188.917969 432.222656 175.746094 C 432.222656 175.746094 432.222656 175.730469 432.222656 175.714844 C 430.425781 172.101562 426.714844 169.808594 422.667969 169.808594 C 416.792969 169.808594 412.0625 174.585938 412.0625 180.445312 C 412.0625 182.691406 412.714844 184.90625 414.019531 186.703125 L 414.019531 186.734375 C 414.050781 186.734375 414.050781 186.753906 414.085938 186.769531 C 421.394531 197.039062 427.445312 208.1875 431.714844 219.988281 C 433.085938 223.75 434.070312 227.585938 435.042969 231.3125 C 435.378906 232.605469 434.613281 233.925781 433.339844 234.261719 C 433.003906 234.339844 432.621094 234.355469 432.289062 234.292969 C 431.859375 234.210938 431.015625 234.277344 429.835938 234.003906 C 423.082031 232.554688 416.410156 230.199219 409.371094 228.320312 C 404.082031 226.902344 398.570312 225.707031 392.917969 225.453125 C 391.039062 225.375 389.046875 225.421875 387.136719 225.582031 C 386.867188 225.597656 386.628906 225.675781 386.355469 225.707031 C 386.453125 224.703125 386.578125 223.429688 386.578125 223.285156 C 386.578125 223.269531 386.578125 223.238281 386.578125 223.191406 C 386.5625 223.128906 386.578125 223.128906 386.546875 223.03125 C 386.546875 222.9375 386.53125 222.824219 386.515625 222.714844 L 386.515625 222.648438 L 386.484375 222.648438 C 386.484375 222.648438 386.484375 222.601562 386.484375 222.554688 C 386.484375 222.585938 386.5 222.601562 386.515625 222.617188 C 386.515625 222.523438 386.5 222.441406 386.484375 222.394531 C 385.480469 202.886719 375.320312 183.902344 360.445312 172.308594 C 359.1875 171.335938 359.1875 169.472656 360.445312 168.515625 C 374.84375 157.175781 388.203125 144.660156 400.453125 131.21875 C 400.484375 131.203125 400.515625 131.167969 400.546875 131.152344 L 400.609375 131.089844 C 415.359375 115.800781 415.136719 91.035156 399.894531 76.128906 C 392.234375 68.644531 382.136719 64.949219 372.183594 65.09375 C 362.277344 65.234375 352.386719 69.183594 344.933594 76.71875 L 344.820312 76.796875 C 344.597656 77.003906 344.453125 77.164062 344.265625 77.355469 C 342.765625 78.804688 340.25 77.816406 340.15625 75.730469 C 339.421875 54.996094 322.367188 38 301.40625 38 Z M 301.40625 57.542969 C 312.238281 57.542969 320.820312 66.683594 320.820312 77.515625 C 321.472656 95.78125 320.710938 114.050781 318.175781 132.046875 C 317.0625 139.945312 315.292969 147.71875 313.414062 155.503906 C 313.144531 156.636719 312.09375 157.417969 310.929688 157.335938 C 308.0625 157.160156 305.246094 157.003906 302.378906 157.003906 C 302.347656 157.003906 302.332031 157.003906 302.28125 157.003906 C 301.996094 157.003906 301.691406 157.003906 301.40625 157.003906 C 301.121094 157.003906 300.816406 157.003906 300.53125 157.003906 C 300.484375 157.003906 300.433594 157.003906 300.371094 157.003906 C 297.472656 157.019531 294.667969 157.175781 291.789062 157.335938 C 290.625 157.398438 289.574219 156.636719 289.300781 155.503906 C 287.457031 147.75 285.6875 139.960938 284.574219 132.046875 C 282.039062 114.050781 281.308594 95.351562 281.960938 77.085938 L 281.960938 77.054688 C 281.960938 77.035156 281.960938 77.003906 281.960938 76.988281 C 282.023438 66.222656 290.671875 57.542969 301.40625 57.542969 Z M 638.929688 81.003906 C 651.035156 81.351562 663.105469 83.074219 674.761719 86.257812 C 684.71875 88.964844 694.257812 92.996094 703.476562 97.675781 C 703.414062 97.867188 703.382812 98.058594 703.320312 98.265625 C 692.984375 97.917969 682.648438 96.863281 672.582031 94.476562 C 660.84375 91.6875 649.441406 87.484375 638.644531 82.070312 C 638.738281 81.703125 638.835938 81.351562 638.929688 81.003906 Z M 230.359375 84.570312 C 230.726562 84.570312 231.078125 84.648438 231.410156 84.824219 C 236.03125 85.160156 240.601562 86.894531 244.105469 90.480469 L 244.105469 90.511719 C 244.121094 90.527344 244.136719 90.542969 244.167969 90.574219 L 244.199219 90.605469 C 244.246094 90.652344 244.3125 90.71875 244.359375 90.765625 C 244.375 90.78125 244.40625 90.78125 244.421875 90.796875 L 244.488281 90.859375 C 250.777344 96.847656 256.765625 103.140625 262.53125 109.589844 C 262.898438 109.988281 263.089844 110.480469 263.121094 111.023438 C 263.597656 118.9375 264.25 126.820312 265.367188 134.722656 C 266.433594 142.300781 267.976562 149.804688 269.664062 157.273438 C 269.96875 158.59375 269.109375 159.917969 267.769531 160.171875 C 267.039062 160.300781 266.335938 160.457031 265.621094 160.601562 C 264.953125 160.746094 264.28125 160.601562 263.726562 160.203125 C 261.335938 158.546875 258.964844 156.875 256.671875 155.105469 C 242.289062 144.007812 228.894531 131.550781 216.601562 118.03125 C 216.601562 118.015625 216.582031 117.984375 216.566406 117.96875 C 216.394531 117.777344 216.375 117.710938 216.410156 117.746094 L 216.375 117.746094 L 216.34375 117.679688 L 216.296875 117.679688 C 208.730469 109.941406 208.8125 97.613281 216.519531 90.097656 C 220.359375 86.320312 225.328125 84.507812 230.359375 84.570312 Z M 372.421875 84.601562 C 377.4375 84.523438 382.40625 86.304688 386.261719 90.082031 C 393.953125 97.597656 394.03125 109.910156 386.515625 117.632812 L 386.484375 117.664062 C 386.484375 117.679688 386.46875 117.710938 386.46875 117.710938 C 386.40625 117.808594 386.339844 117.886719 386.277344 117.949219 C 373.964844 131.503906 360.605469 143.972656 346.175781 155.089844 C 343.867188 156.875 341.476562 158.53125 339.089844 160.1875 C 338.53125 160.570312 337.847656 160.714844 337.191406 160.554688 C 336.523438 160.394531 335.773438 160.28125 335.011719 160.15625 C 333.65625 159.917969 332.78125 158.59375 333.082031 157.257812 C 334.773438 149.789062 336.394531 142.300781 337.464844 134.707031 C 338.578125 126.804688 339.214844 118.890625 339.710938 110.976562 C 339.742188 110.433594 339.980469 109.957031 340.332031 109.542969 C 346.0625 103.125 351.988281 96.878906 358.246094 90.910156 L 358.277344 90.875 C 358.3125 90.828125 358.359375 90.796875 358.40625 90.75 C 358.261719 90.894531 358.246094 90.859375 358.46875 90.6875 C 358.503906 90.652344 358.519531 90.621094 358.566406 90.589844 L 358.660156 90.496094 L 358.691406 90.460938 C 362.453125 86.609375 367.421875 84.679688 372.421875 84.601562 Z M 635.265625 94.285156 C 646.273438 99.589844 657.867188 103.714844 669.761719 106.546875 C 679.78125 108.921875 690.019531 110.050781 700.308594 110.5625 C 698.253906 118.859375 696.246094 127.0625 694.625 134.671875 C 684.859375 130.835938 674 127.078125 662.246094 124.003906 C 661.355469 123.765625 660.492188 123.542969 659.601562 123.316406 L 659.570312 123.316406 C 648.644531 120.5625 638.261719 118.730469 628.65625 117.410156 C 630.871094 110.164062 633.054688 102.265625 635.265625 94.285156 Z M 525.519531 114.65625 C 525.488281 114.65625 525.472656 114.6875 525.457031 114.6875 C 523.527344 115.085938 521.695312 116.183594 520.390625 117.726562 C 516.441406 122.410156 512.460938 126.679688 508.046875 130.039062 C 500.546875 135.757812 490.753906 139.53125 480.894531 145.628906 C 469.140625 152.910156 458.46875 163.546875 453.929688 177.640625 C 451.75 184.394531 451.253906 191.5 452.195312 198.457031 C 452.339844 199.589844 452.53125 200.449219 452.65625 201.007812 C 454.964844 210.417969 463.503906 216.964844 473.089844 217.125 C 490.671875 217.296875 507.363281 208.683594 518.382812 195.449219 C 530.886719 180.414062 535.617188 161.015625 536.621094 142.636719 C 536.984375 136.027344 536.9375 129.464844 536.398438 122.886719 C 536.398438 122.871094 536.398438 122.839844 536.398438 122.824219 C 535.933594 117.503906 530.710938 113.585938 525.519531 114.65625 Z M 625.871094 129.496094 C 634.359375 130.582031 643.660156 132.140625 653.773438 134.59375 L 653.867188 134.59375 C 653.867188 134.59375 653.867188 134.609375 653.867188 134.609375 C 655.574219 135.054688 657.261719 135.46875 658.964844 135.933594 C 658.964844 135.933594 658.964844 135.949219 658.964844 135.949219 C 658.996094 135.964844 659.027344 135.949219 659.058594 135.949219 C 670.878906 139.039062 681.804688 142.828125 691.230469 146.585938 C 681.148438 145.25 669.808594 143.242188 657.976562 140.152344 C 646.113281 137.0625 635.296875 133.257812 625.871094 129.496094 Z M 620.519531 140.628906 C 630.695312 144.738281 642.273438 148.816406 654.855469 152.113281 C 667.390625 155.394531 679.460938 157.527344 690.324219 158.929688 C 689.320312 167.640625 689.511719 174.902344 690.484375 181.113281 C 674.332031 180.445312 658.296875 177.898438 642.832031 173.375 C 631.347656 170.015625 620.28125 165.410156 609.609375 159.964844 C 613.449219 154.980469 617.125 148.738281 620.519531 140.628906 Z M 79.652344 143.800781 C 82.023438 143.800781 83.425781 144.386719 86.339844 145.503906 C 88.554688 146.363281 91.023438 147.527344 94.113281 149.613281 C 104.226562 156.398438 117.523438 169.359375 131.617188 187.101562 C 159.824219 222.570312 191.738281 277.660156 217.378906 335.820312 C 226.539062 356.605469 234.46875 377.546875 241.636719 398.09375 L 140.121094 398.09375 C 140.457031 395.386719 140.648438 392.710938 141.140625 389.9375 C 143.5625 376.765625 147.304688 363.597656 151.527344 350.28125 C 152.019531 348.769531 152.164062 347.765625 152.179688 347.796875 C 152.035156 347.496094 151.972656 347.160156 151.957031 346.824219 C 151.921875 345.582031 151.683594 344.53125 151.207031 343.464844 L 151.207031 343.433594 L 151.175781 343.402344 C 149.296875 339.179688 143.292969 336.871094 139.070312 338.734375 C 136.363281 339.929688 134.199219 342.667969 133.6875 345.582031 L 133.671875 345.582031 C 129.4375 358.992188 125.613281 372.546875 123.035156 386.546875 C 122.363281 390.160156 122.347656 394.109375 122.125 398.09375 L 115.324219 398.09375 L 115.292969 398.058594 C 109.113281 384.125 105.019531 370.523438 104.289062 357.402344 C 102.855469 332.078125 113.398438 305.003906 127.269531 277.246094 C 128.734375 274.808594 128.910156 271.414062 127.765625 268.789062 C 127.765625 268.757812 127.746094 268.707031 127.730469 268.660156 C 125.820312 264.488281 119.863281 262.242188 115.660156 264.089844 C 113.304688 265.125 111.34375 267.273438 110.5625 269.726562 C 110.53125 269.839844 110.46875 269.964844 110.402344 270.0625 C 102.855469 285.367188 96.898438 301.070312 92.457031 317.09375 C 91.835938 319.449219 88.472656 319.496094 87.789062 317.15625 C 81.226562 295.449219 75.734375 275.222656 74.109375 260.300781 C 72.421875 244.753906 73.804688 234.003906 76.785156 226.167969 C 79.761719 218.367188 84.347656 213.285156 89.667969 209.097656 C 93.078125 206.421875 96.929688 204.429688 101.152344 202.3125 C 101.152344 202.3125 101.34375 202.25 101.4375 202.183594 L 101.5 202.152344 L 101.535156 202.121094 C 101.582031 202.089844 101.597656 202.058594 101.660156 202.023438 C 105.546875 199.9375 107.523438 194.238281 105.769531 190.207031 L 105.769531 190.175781 L 105.738281 190.144531 C 103.859375 185.941406 97.839844 183.648438 93.601562 185.511719 C 93.554688 185.527344 93.507812 185.558594 93.441406 185.574219 C 93.332031 185.636719 93.140625 185.78125 92.695312 186.035156 L 91.753906 186.59375 C 91.691406 186.640625 91.628906 186.671875 91.5625 186.71875 C 87.023438 188.886719 82.535156 191.339844 78.28125 194.683594 C 70.558594 200.765625 63.949219 210.019531 59.742188 222.300781 C 58.914062 224.734375 55.378906 224.402344 55.078125 221.835938 C 53.199219 206.023438 53.085938 188.996094 55.601562 175.460938 C 56.636719 169.886719 57.945312 164.996094 59.550781 161.191406 C 62.878906 153.242188 66.941406 149.199219 71.304688 146.632812 C 74.9375 144.800781 76.5625 143.800781 79.652344 143.800781 Z M 510.085938 151.238281 C 511.824219 150.710938 513.480469 152.238281 513.128906 154.007812 C 511.136719 164.074219 509.878906 175.238281 503.429688 182.992188 C 496.453125 191.371094 484.683594 197.4375 474.445312 198.109375 L 474.414062 198.109375 C 473.121094 198.425781 471.960938 197.582031 471.609375 196.339844 C 471.578125 196.261719 471.496094 196.003906 471.449219 195.847656 L 471.417969 195.8125 C 471.417969 196.625 471.226562 187.261719 472.421875 183.582031 C 475.128906 175.191406 482.089844 167.703125 491.085938 162.144531 C 496.007812 159.105469 503.0625 155.058594 509.59375 151.410156 C 509.753906 151.347656 509.910156 151.285156 510.085938 151.238281 Z M 600.675781 168.960938 C 613.050781 175.523438 625.871094 181.257812 639.34375 185.207031 C 657.070312 190.398438 675.480469 192.996094 693.9375 193.425781 C 694.558594 194.96875 695.164062 196.5625 695.898438 197.964844 C 700.644531 207.027344 706.472656 213.636719 709.433594 219.210938 C 711.570312 223.238281 713.019531 228.175781 714.386719 233.433594 C 715.757812 239.578125 715.820312 246.554688 714.101562 253.117188 L 704.304688 290.6875 L 697.425781 316.902344 L 694.6875 327.378906 C 693.191406 333.082031 688.109375 336.058594 682.40625 334.5625 L 541.523438 297.710938 C 535.824219 296.210938 532.84375 291.164062 534.34375 285.445312 L 537.113281 274.933594 L 543.960938 248.722656 L 553.789062 211.152344 C 555.460938 204.75 558.710938 198.9375 562.722656 194.316406 C 566.578125 190.289062 570.351562 186.640625 574.269531 184.109375 C 579.558594 180.699219 587.886719 177.785156 596.488281 172.195312 C 597.871094 171.273438 599.273438 170.09375 600.675781 168.960938 Z M 300.433594 176.464844 L 302.296875 176.464844 C 310.214844 176.496094 318.144531 177.179688 326.058594 178.199219 L 326.09375 178.199219 C 326.234375 178.214844 326.316406 178.230469 326.25 178.230469 C 326.347656 178.246094 326.425781 178.246094 326.539062 178.261719 C 326.601562 178.28125 326.679688 178.28125 326.761719 178.296875 C 327.382812 178.375 328.003906 178.488281 328.59375 178.613281 C 328.6875 178.628906 328.800781 178.660156 328.910156 178.675781 C 350.699219 181.816406 366.976562 200.242188 366.992188 222.507812 C 366.992188 222.539062 366.992188 222.585938 366.992188 222.632812 C 366.992188 222.679688 366.992188 222.714844 366.992188 222.761719 C 366.992188 222.824219 366.976562 222.886719 366.957031 222.953125 L 366.957031 222.984375 C 366.957031 223 366.957031 223.03125 366.957031 223.046875 C 366.957031 223.0625 366.957031 223.078125 366.957031 223.113281 C 366.976562 226.105469 366.640625 229.386719 366.496094 232.699219 C 365.796875 233.128906 365 233.367188 364.316406 233.8125 C 357.578125 238.367188 352.019531 244.371094 347.640625 251.078125 C 340.917969 261.382812 337.144531 273.136719 334.820312 285.015625 C 325.613281 288.34375 316.3125 291.464844 306.820312 293.886719 C 303.539062 294.714844 300.277344 295.433594 296.867188 296.195312 C 295.289062 296.546875 293.839844 298.523438 293.96875 300.082031 C 294.097656 301.644531 295.914062 303.363281 297.519531 303.441406 C 308.527344 303.746094 319.515625 303.855469 330.425781 303.046875 C 331.109375 302.996094 331.792969 302.804688 332.480469 302.726562 C 329.691406 330.421875 331.90625 358.578125 339.628906 385.351562 C 340.171875 387.214844 340.871094 389.03125 341.492188 390.894531 C 341 393.3125 340.519531 395.734375 339.996094 398.140625 L 262.738281 398.140625 C 260.507812 387.851562 258.421875 377.546875 256.429688 367.226562 C 256.097656 365.476562 257.6875 363.960938 259.425781 364.425781 C 268.472656 366.859375 277.742188 368.550781 287.105469 369.25 C 296.964844 369.984375 306.949219 369.902344 316.871094 369.617188 C 316.886719 369.617188 316.917969 369.617188 316.933594 369.617188 C 318.335938 369.503906 319.898438 367.894531 320.007812 366.480469 C 320.121094 365.0625 318.863281 363.324219 317.460938 362.960938 L 317.429688 362.960938 L 317.429688 362.925781 L 317.398438 362.925781 C 314.339844 362.242188 311.359375 361.558594 308.414062 360.808594 C 289.144531 355.902344 270.398438 348.976562 252.339844 340.648438 C 251.636719 340.3125 251.113281 339.675781 250.96875 338.910156 C 248.675781 326.296875 246.414062 313.699219 244.214844 301.085938 C 240.519531 279.921875 237.257812 258.53125 236.410156 236.984375 C 236.347656 235.328125 237.910156 234.101562 239.484375 234.59375 C 251.621094 238.351562 264.265625 240.742188 277.023438 241.679688 C 288.585938 242.542969 300.242188 242.367188 311.886719 242.046875 C 311.902344 242.046875 311.933594 242.046875 311.949219 242.046875 C 313.589844 241.921875 315.359375 240.183594 315.5 238.558594 C 315.644531 236.917969 314.210938 234.929688 312.601562 234.515625 L 312.570312 234.515625 L 312.570312 234.484375 C 308.957031 233.671875 305.453125 232.90625 301.996094 232.03125 C 280.828125 226.648438 260.238281 219.179688 240.3125 210.257812 C 239.152344 209.734375 238.59375 208.394531 239.039062 207.21875 C 244.757812 191.832031 258.390625 180.300781 275.621094 178.46875 C 275.652344 178.46875 275.671875 178.453125 275.71875 178.4375 C 275.910156 178.359375 276.117188 178.3125 276.308594 178.28125 C 276.386719 178.28125 276.386719 178.28125 276.433594 178.28125 C 276.480469 178.28125 276.578125 178.246094 276.5625 178.246094 C 276.59375 178.230469 276.640625 178.230469 276.6875 178.214844 C 284.589844 177.148438 292.503906 176.496094 300.433594 176.464844 Z M 392.042969 244.898438 C 395.59375 245.042969 399.605469 245.871094 404.242188 247.113281 C 410.40625 248.769531 417.316406 251.222656 425.710938 253.019531 C 431.890625 254.34375 438.085938 255.089844 444.25 255.265625 C 444.375 255.265625 444.503906 255.265625 444.613281 255.265625 L 445.140625 255.265625 C 445.171875 255.265625 445.171875 255.265625 445.203125 255.265625 C 445.492188 255.265625 445.730469 255.265625 446.015625 255.265625 C 446.636719 255.25 447.433594 255.125 448.40625 255.074219 C 448.4375 255.074219 448.5 255.074219 448.53125 255.074219 C 448.5625 255.074219 448.5625 255.074219 448.597656 255.074219 C 448.660156 255.074219 448.769531 255.042969 448.789062 255.042969 C 454.074219 254.757812 459.332031 254.136719 464.554688 253.019531 C 472.929688 251.222656 479.859375 248.769531 486.023438 247.113281 C 490.640625 245.871094 494.765625 245.058594 498.300781 244.898438 C 499.335938 244.867188 500.402344 244.898438 501.4375 244.992188 C 501.457031 244.992188 501.488281 244.992188 501.503906 244.992188 C 501.535156 244.992188 501.597656 244.992188 501.628906 244.992188 C 501.660156 244.992188 501.664062 244.992188 501.695312 244.992188 C 506.199219 245.34375 510.882812 247.066406 515.105469 249.914062 C 517.429688 251.492188 519.609375 253.484375 521.664062 255.695312 L 517.9375 269.949219 L 515.199219 280.460938 C 511.773438 293.554688 517.621094 306.691406 528.609375 313.363281 L 506.457031 398.09375 L 365.492188 398.09375 C 362.753906 392.453125 360.269531 386.53125 358.375 379.921875 C 350.761719 353.546875 348.707031 325.515625 352.304688 298.265625 C 354.167969 284.253906 357.53125 271.464844 363.886719 261.714844 C 367.039062 256.875 370.972656 252.78125 375.238281 249.898438 C 379.445312 247.046875 384.144531 245.34375 388.648438 244.976562 C 388.714844 244.976562 388.777344 244.976562 388.839844 244.976562 C 389.84375 244.898438 390.960938 244.851562 392.042969 244.898438 Z M 547.386719 319.703125 L 666.515625 350.871094 L 653.882812 399.175781 C 651.671875 398.492188 649.425781 398.09375 647.195312 398.09375 L 526.875 398.09375 Z M 51.492188 399.796875 C 51.476562 399.796875 51.285156 400.019531 51.207031 400.113281 C 51.300781 400.003906 51.398438 399.890625 51.492188 399.796875 Z M 51.160156 400.210938 C 51.09375 400.304688 50.921875 400.496094 50.902344 400.527344 L 50.96875 400.5625 C 51.015625 400.417969 51.078125 400.304688 51.160156 400.210938 Z M 115.070312 417.125 L 647.101562 417.125 C 648.757812 417.15625 650.445312 417.09375 651.511719 418.335938 C 651.972656 418.574219 652.847656 419.957031 653.183594 420.613281 L 655.699219 425.214844 L 655.699219 425.246094 L 655.730469 425.308594 L 660.300781 433.671875 L 666.769531 445.488281 C 668.105469 447.910156 667.613281 450.554688 666.578125 452.273438 C 665.574219 453.945312 663.535156 455.539062 660.828125 455.539062 L 658.34375 455.539062 C 658.3125 455.539062 658.25 455.539062 658.214844 455.539062 L 101.675781 455.539062 C 98.96875 455.539062 96.929688 453.945312 95.925781 452.273438 C 94.925781 450.601562 94.398438 447.957031 95.734375 445.519531 L 101.898438 434.261719 L 106.820312 425.324219 C 106.820312 425.292969 106.835938 425.261719 106.851562 425.230469 L 106.851562 425.199219 L 109.402344 420.5625 C 109.734375 419.941406 111.074219 418.507812 111.074219 418.507812 C 112.109375 417.285156 113.429688 417.203125 115.070312 417.125 Z M 134.546875 474.554688 L 627.429688 474.554688 C 631.125 474.585938 633.898438 478.105469 633.070312 481.703125 L 590.050781 659.886719 C 582.996094 689.03125 555.125 710.945312 525.136719 710.960938 L 237.414062 710.960938 C 223.257812 710.960938 208.191406 705.546875 196.757812 697.152344 C 196.566406 696.996094 195.945312 696.5 195.511719 696.148438 C 184.460938 687.007812 175.875 673.628906 172.5 659.695312 L 129.484375 481.769531 C 128.65625 478.375 131.058594 474.902344 134.546875 474.554688 Z M 260.15625 516.265625 C 259.503906 516.265625 258.804688 516.488281 258.230469 516.789062 L 247.992188 522.429688 C 246.730469 523.113281 245.746094 524.6875 245.746094 526.089844 L 245.746094 661.894531 C 245.746094 663.933594 248.085938 666.191406 250.125 666.128906 C 250.808594 666.113281 251.429688 665.90625 251.988281 665.605469 L 262.277344 659.949219 C 263.535156 659.265625 264.488281 657.703125 264.488281 656.289062 L 264.488281 520.46875 C 264.488281 518.429688 262.195312 516.214844 260.171875 516.265625 C 260.191406 516.265625 260.15625 516.265625 260.15625 516.265625 Z M 344.230469 516.265625 C 343.578125 516.265625 342.878906 516.488281 342.304688 516.789062 L 332.03125 522.429688 C 330.773438 523.113281 329.851562 524.671875 329.851562 526.089844 L 329.851562 661.894531 C 329.851562 663.949219 332.175781 666.191406 334.199219 666.128906 C 334.867188 666.113281 335.519531 665.90625 336.0625 665.605469 L 346.335938 659.949219 C 347.59375 659.265625 348.578125 657.703125 348.578125 656.289062 L 348.578125 520.46875 C 348.578125 518.429688 346.285156 516.214844 344.265625 516.265625 C 344.265625 516.265625 344.246094 516.265625 344.230469 516.265625 Z M 428.304688 516.265625 C 427.652344 516.265625 426.9375 516.488281 426.378906 516.789062 L 416.140625 522.429688 C 414.878906 523.113281 413.925781 524.6875 413.925781 526.089844 L 413.925781 661.894531 C 413.925781 663.949219 416.21875 666.191406 418.242188 666.128906 C 418.925781 666.113281 419.578125 665.90625 420.136719 665.605469 L 430.425781 659.949219 C 431.667969 659.265625 432.605469 657.703125 432.605469 656.289062 L 432.605469 520.46875 C 432.605469 518.429688 430.34375 516.214844 428.304688 516.265625 Z M 512.394531 516.265625 C 511.742188 516.265625 510.996094 516.488281 510.4375 516.789062 L 500.230469 522.429688 C 498.96875 523.113281 498.015625 524.6875 498.015625 526.089844 L 498.015625 661.894531 C 498.015625 663.949219 500.308594 666.191406 502.332031 666.128906 C 503.015625 666.113281 503.667969 665.90625 504.226562 665.605469 L 514.515625 659.949219 C 515.773438 659.265625 516.726562 657.703125 516.726562 656.289062 L 516.726562 520.46875 C 516.726562 518.445312 514.433594 516.199219 512.414062 516.265625 Z M 512.394531 516.265625 "/></g><path style="fill:none;stroke-width:4;stroke-linecap:butt;stroke-linejoin:miter;stroke:#ffffff;stroke-opacity:1;stroke-miterlimit:4;" d="M 0.00147156 2.002105 L 327.678571 2.002105 " transform="matrix(0.75,0,0,0.75,261.11999,728.099984)"/></g></svg>